<?xml version="1.0" encoding="utf-8"?>
<!-- Generator: Adobe Illustrator 23.0.6, SVG Export Plug-In . SVG Version: 6.00 Build 0)  -->
<svg version="1.1" id="Layer_1" xmlns="http://www.w3.org/2000/svg" xmlns:xlink="http://www.w3.org/1999/xlink" x="0px" y="0px"
	 viewBox="0 0 35 35" style="enable-background:new 0 0 35 35;" xml:space="preserve">
<style type="text/css">
	.st0{fill:#3f3d56;}
</style>
<path id="Icon_awesome-linkedin" class="st0" d="M32.5,0h-30C1.1,0,0,1.1,0,2.5v30C0,33.9,1.1,35,2.5,35h30c1.4,0,2.5-1.1,2.5-2.5
	v-30C35,1.1,33.9,0,32.5,0z M10.6,30H5.4V13.3h5.2L10.6,30L10.6,30z M8,11c-1.7,0-3-1.3-3-3s1.3-3,3-3s3,1.3,3,3C11,9.7,9.6,11,8,11
	z M30,30h-5.2v-8.1c0-1.9,0-4.4-2.7-4.4c-2.7,0-3.1,2.1-3.1,4.3V30h-5.2V13.3h5v2.3h0.1c1-1.7,2.9-2.8,4.9-2.7c5.3,0,6.2,3.5,6.2,8
	L30,30z"/>
</svg>
